<?xml version="1.0" encoding="UTF-8" standalone="no"?>
<!-- Generator: Adobe Illustrator 15.0.2, SVG Export Plug-In . SVG Version: 6.00 Build 0)  -->

<svg
   xmlns:dc="http://purl.org/dc/elements/1.1/"
   xmlns:cc="http://creativecommons.org/ns#"
   xmlns:rdf="http://www.w3.org/1999/02/22-rdf-syntax-ns#"
   xmlns:svg="http://www.w3.org/2000/svg"
   xmlns="http://www.w3.org/2000/svg"
   xmlns:sodipodi="http://sodipodi.sourceforge.net/DTD/sodipodi-0.dtd"
   xmlns:inkscape="http://www.inkscape.org/namespaces/inkscape"
   version="1.2"
   id="Calque_1"
   x="0px"
   y="0px"
   width="200"
   height="240"
   viewBox="0 0 200 240"
   overflow="inherit"
   xml:space="preserve"
   inkscape:version="0.48.4 r9939"
   sodipodi:docname="Logo-cgt.svg"
   style="overflow:inherit"><metadata
     id="metadata31"><rdf:RDF><cc:Work
         rdf:about=""><dc:format>image/svg+xml</dc:format><dc:type
           rdf:resource="http://purl.org/dc/dcmitype/StillImage" /><dc:title></dc:title></cc:Work></rdf:RDF></metadata><defs
     id="defs29" /><sodipodi:namedview
     pagecolor="#ffffff"
     bordercolor="#666666"
     borderopacity="1"
     objecttolerance="10"
     gridtolerance="10"
     guidetolerance="10"
     inkscape:pageopacity="0"
     inkscape:pageshadow="2"
     inkscape:window-width="1920"
     inkscape:window-height="1048"
     id="namedview27"
     showgrid="false"
     showguides="true"
     inkscape:guide-bbox="true"
     fit-margin-top="0"
     fit-margin-left="0"
     fit-margin-right="0"
     fit-margin-bottom="0"
     inkscape:zoom="1.2361274"
     inkscape:cx="-87.705212"
     inkscape:cy="162.64869"
     inkscape:window-x="1920"
     inkscape:window-y="0"
     inkscape:window-maximized="1"
     inkscape:current-layer="g3"><sodipodi:guide
       orientation="0,1"
       position="66.076271,56.973306"
       id="guide3020" /><sodipodi:guide
       orientation="1,0"
       position="-65.491525,104.16611"
       id="guide3022" /></sodipodi:namedview><g
     id="g3"
     transform="translate(-6.0000004,-25.448033)"><rect
       x="6.2799664"
       y="35.180115"
       width="199.15707"
       height="221.08263"
       id="rect5"
       style="fill:#d20012" /><path
       d="m 78.671,188.544 c -2.811,4.438 -5.922,9.322 -12.136,13.763 -5.919,4.146 -13.468,6.956 -22.203,6.956 C 29.534,209.263 6,200.384 6,168.859 c 0,-22.496 13.024,-41.441 38.776,-41.441 8.585,0 23.24,2.369 33.005,18.5 l -16.871,9.621 c -1.333,-2.813 -2.812,-5.477 -6.513,-8.14 -2.218,-1.481 -5.031,-2.663 -8.583,-2.663 -12.284,0 -16.429,14.059 -16.429,23.381 0,10.213 5.032,23.089 17.166,23.089 1.186,0 6.81,0 11.547,-5.325 1.923,-2.223 2.665,-3.998 3.402,-6.217 l 17.171,8.88 z"
       id="path7"
       inkscape:connector-curvature="0"
       style="fill:#ffffff" /><path
       d="m 130.914,196.533 c -4.441,2.964 -9.916,6.514 -20.425,6.514 -6.364,0 -12.581,-1.627 -17.611,-5.032 -10.362,-6.661 -14.355,-18.646 -14.355,-31.967 0,-15.54 7.25,-37.891 32.856,-37.891 11.84,0 17.314,5.18 20.719,8.435 v -7.25 h 21.314 v 74.298 c -0.295,8.437 -0.591,18.353 -11.842,24.865 -7.843,4.734 -19.386,5.918 -26.344,5.918 -15.394,0 -25.456,-5.327 -29.602,-9.617 -6.068,-6.068 -5.919,-13.911 -5.919,-18.059 h 23.532 c 0.295,3.402 0.593,8.289 6.661,11.101 1.48,0.739 3.7,1.48 7.253,1.48 13.763,0 13.763,-8.14 13.763,-14.507 v -8.288 z m -28.859,-30.634 c 0,6.511 0.443,19.981 14.501,19.981 11.546,0 14.209,-9.029 14.209,-19.981 0,-3.701 -0.293,-11.396 -2.81,-15.096 -1.779,-2.814 -5.92,-5.921 -12.433,-5.625 -10.804,0.443 -13.467,9.767 -13.467,20.721"
       id="path9"
       inkscape:connector-curvature="0"
       style="fill:#ffffff" /><path
       d="m 169.232,106.244 h 22.646 v 23.1 H 206 v 15.835 h -14.27 v 34.78 c -0.148,4.734 -0.148,8.73 5.918,8.73 l 8.14,-0.294 v 17.759 c -4.885,0.742 -7.844,1.184 -11.983,1.184 -7.848,0 -16.433,-0.441 -21.315,-7.549 -3.108,-4.587 -3.257,-10.063 -3.257,-17.461 v -37.299 h -11.25 v -15.706 h 11.25 v -23.079 z"
       id="path11"
       inkscape:connector-curvature="0"
       style="fill:#ffffff" /><path
       d="M 88.082,67.488 V 67.5 c 0.081,-0.066 0.06,-0.054 0,-0.012"
       id="path13"
       inkscape:connector-curvature="0"
       style="fill:#ffd900" /><path
       d="m 87.536,68.182 c -0.013,0.116 0.123,-0.013 0,0"
       id="path15"
       inkscape:connector-curvature="0"
       style="fill:#ffd900" /><path
       d="m 17.328,120.27 c 0.002,-0.002 0.007,-0.013 0.007,-0.013 -0.029,-0.047 -0.042,-0.06 -0.007,0.013"
       id="path17"
       inkscape:connector-curvature="0"
       style="fill:#ffd900" /><path
       d="m 155.066,122.529 c -0.005,-0.002 -0.007,-0.002 -0.007,-0.002 -0.018,0 -0.022,0 0.007,0.002"
       id="path19"
       inkscape:connector-curvature="0"
       style="fill:#ffd900" /><path
       d="m 155.287,122.527 c -0.005,0 -0.005,0.002 -0.007,0.002 0.028,0 0.024,0 0.007,-0.002"
       id="path21"
       inkscape:connector-curvature="0"
       style="fill:#ffd900" /><path
       d="m 204.862,111.248 c -0.248,0.011 -0.481,0.032 -0.689,0.081 -0.062,0.015 -0.151,0.298 -0.216,0.323 -0.343,0.121 -1.664,0.308 -1.83,0.324 -0.826,0.07 -1.563,-0.324 -2.585,-0.324 0.072,0.479 0.013,0.695 0.321,1.185 -0.164,-0.047 -0.493,0.063 -0.646,0 -0.199,-0.087 -0.242,-0.81 -0.97,-0.322 -0.084,0.053 -0.112,0.4 -0.214,0.431 -0.232,0.062 -0.015,-0.036 -0.106,-0.108 l -2.367,-0.322 -0.219,-0.216 c -0.214,0.017 -0.239,0.076 -0.321,0.108 -0.409,0.146 -0.09,0.198 -0.325,0.43 h -0.214 c -0.083,-0.047 0,-0.43 0,-0.43 -0.381,-0.092 -0.627,0.366 -0.862,0.43 -0.377,0.096 -0.767,-0.161 -1.402,-0.105 -0.844,0.065 -1.995,0.408 -2.688,0.752 -0.179,-0.141 -0.337,-0.265 -0.54,-0.43 -0.045,0.04 -0.754,0.97 -0.754,0.97 -0.191,0.081 -0.461,-0.159 -0.212,-0.107 -0.014,-0.074 0.168,-0.648 0,-0.648 -0.229,-0.005 -0.229,0.288 -0.327,0.43 -0.398,-0.214 -0.828,-0.409 -1.293,0 -0.059,0.055 -0.024,0.297 -0.107,0.326 -0.469,0.14 0.059,-0.587 -0.537,-0.433 -0.304,0.079 -0.613,0.521 -0.861,0.646 -0.423,0.206 -0.81,0.204 -1.29,0.325 0.004,-0.027 0.194,-0.293 0.106,-0.325 -0.088,-0.034 -0.242,0.051 -0.323,0 -0.203,0.252 -0.234,0.443 -0.432,0.754 -0.231,-0.051 -0.524,0 -0.756,0 0.014,-0.211 0,-0.438 0,-0.646 0.361,0.013 -0.23,-0.179 -0.32,-0.217 -0.25,0.519 -0.195,0.429 -0.11,0.971 -0.072,0 -0.266,0.03 -0.322,0 0,0 -0.614,0.085 -0.965,0.105 0.378,-0.216 0.118,-0.154 0.212,-0.427 l 0.325,-0.216 c -0.025,-0.005 -0.369,-0.197 -0.432,-0.217 -0.145,0.429 -0.339,1.15 -1.186,1.075 -0.971,-0.086 0.059,-0.842 -1.29,-0.216 v 0.647 c -0.024,0.008 -1.508,-0.216 -1.508,-0.216 -0.114,-0.097 -0.063,-0.313 -0.216,-0.432 -0.204,0.136 -0.508,0.684 -0.755,0.755 -0.797,0.218 -1.277,-0.191 -1.941,0 -0.035,0.009 0.094,0.179 0.108,0.216 -0.3,0.098 -0.558,0.31 -0.968,0.214 -0.157,-0.034 0,-0.43 0,-0.43 -0.166,-0.068 -1.05,-0.114 -1.079,-0.107 v 0.107 c 0,0 -0.616,0.283 -0.968,0.322 l -0.108,0.54 c -0.319,0.161 -0.883,-0.32 -1.289,-0.322 -0.155,-0.004 -0.322,0.322 -0.322,0.322 -1.425,0.405 -2.47,0.259 -3.88,0.43 -0.319,0.039 -1.265,0.491 -1.612,0.538 -0.661,0.083 -1.474,0.138 -1.834,0 -0.246,-0.097 -0.134,-0.473 -0.753,-0.43 -0.466,0.029 -0.859,0.562 -1.184,0.646 -0.495,0.124 -1.312,0.189 -1.617,0.216 -0.661,0.055 -1.007,-0.176 -1.4,-0.433 -0.045,0.044 -0.108,0.539 -0.108,0.539 -0.282,0.055 -0.609,-0.392 -1.078,-0.322 -0.004,0 -0.275,0.309 -0.32,0.322 -0.511,0.136 -1.39,0.213 -1.828,0.215 -0.987,0 -1.912,-0.215 -2.908,-0.107 -1.151,0.118 -1.697,0.578 -2.804,0.646 -0.283,0.014 -1.31,-0.261 -1.829,-0.214 -0.377,0.027 -0.747,0.589 -1.076,0.644 -0.761,0.128 -0.603,-0.435 -1.289,-0.322 -0.124,0.017 -0.081,0.298 -0.11,0.431 -0.844,-0.076 -2.46,0.433 -2.908,-0.322 -0.08,0.047 -0.113,0.372 0,0.432 -0.896,0 -1.531,0.25 -2.263,0.215 -0.508,-0.03 -1.09,-0.03 -1.83,-0.215 -0.173,-0.044 -0.356,-0.419 -0.432,-0.432 -0.7,-0.152 -1.534,0.319 -2.261,0.322 h -1.078 c 0,0 -0.17,-0.491 -0.321,-0.538 -0.354,-0.112 -0.78,0.22 -1.078,0.216 -0.178,-0.004 -0.347,-0.31 -0.43,-0.322 -1.132,-0.219 -0.718,0.607 -1.507,0.536 0,0 -1.25,-0.529 -0.647,-0.43 -0.011,-0.026 -0.211,-0.284 -0.107,-0.325 -0.443,0.066 -0.627,0.041 -1.075,0.111 0.002,0.023 0.106,0.537 0.106,0.537 -0.259,0.038 -0.861,-0.43 -0.861,-0.43 -0.643,-0.123 -0.103,0.245 -0.647,0.214 -0.676,-0.044 -1.269,-0.671 -1.72,-0.968 -0.204,0.136 -0.277,0.182 -0.539,0.321 -0.152,-0.394 -0.385,-0.743 -0.54,-1.076 -0.669,0.158 -1.182,-0.122 -1.938,-0.216 -0.034,-0.136 0.012,-0.404 -0.108,-0.43 -0.481,-0.111 -0.37,0.296 -0.859,0.107 -0.129,-0.05 -0.431,-0.611 -0.538,-0.647 -0.195,-0.06 -0.441,0.162 -0.756,0.107 -0.327,-0.058 -0.18,-0.415 -0.213,-0.43 -0.15,-0.06 -0.402,0.076 -0.54,0 -0.049,-0.025 -0.009,-0.391 -0.108,-0.431 -0.09,-0.035 -0.5,0.268 -0.859,-0.216 -0.081,-0.1 -0.056,-0.163 -0.11,-0.322 0,0 -0.094,-0.258 -0.214,-0.429 0.079,0.146 0.191,-0.271 0,-0.434 -0.35,-0.299 -0.568,-0.093 -0.971,-0.105 0.095,-0.078 -0.092,-0.275 -0.108,-0.326 0.102,-0.038 0.214,0 0.324,0 -0.171,-0.767 -0.411,-0.699 -0.536,-0.966 -0.382,-0.786 -0.483,-1.941 -0.542,-2.693 -0.214,-0.015 -0.428,-0.08 -0.645,-0.108 0.144,-0.54 0.191,-0.676 0.538,-0.97 -0.159,-0.491 -0.894,-1.479 -0.755,-2.045 0.071,-0.288 0.34,-0.261 0.541,-0.43 -0.348,-0.737 -0.324,-0.924 0.214,-1.295 -0.036,-0.114 -0.252,-0.502 -0.214,-0.644 0.013,-0.066 0.507,-0.435 0.536,-0.538 0.095,-0.36 -0.157,-0.433 -0.105,-0.755 0.023,-0.171 0.343,-0.701 0.432,-0.971 -0.099,-0.088 -0.756,-0.97 -0.756,-0.97 -0.186,-0.076 -0.58,0.096 -0.755,0 -0.022,-0.013 0.015,-0.281 0,-0.319 -0.171,-0.454 -0.718,-0.356 -1.184,-0.325 -0.084,-0.144 -0.174,-0.595 -0.322,-0.646 -0.288,-0.106 -0.117,0.948 -0.111,0.971 -0.847,0.122 -1.254,0.203 -1.72,0.644 -0.852,0.794 -0.924,2.784 -1.296,3.913 l -0.967,1.148 c -0.077,0.047 -0.331,0.142 -0.431,0.216 0.092,0.629 0.139,1.007 -0.323,1.291 -0.967,0.589 -0.849,-0.282 -0.969,-0.323 -0.142,-0.046 -0.304,0.062 -0.43,0 0,0 -0.174,0.351 -0.216,0.433 0.178,0.117 0.224,0.043 0.432,0.106 -0.027,0.067 -0.11,0.324 -0.11,0.324 -0.102,-0.07 -0.321,0.049 -0.431,0 -0.043,-0.023 -0.079,-0.342 -0.107,-0.431 -0.065,0.021 -0.555,0.19 -0.432,0.217 -0.208,0.196 -0.53,0.73 -0.751,0.857 -0.233,0.13 -0.169,-0.158 -0.431,-0.105 -0.504,0.102 -0.854,1.183 -0.971,1.725 -0.174,-0.06 -0.479,0.067 -0.644,0 -0.026,-0.011 0,-0.292 0,-0.324 0,0 -0.03,-0.568 -0.754,-0.432 -0.089,0.012 -0.452,0.394 -0.539,0.432 -0.284,0.104 -0.725,-0.042 -1.079,0.105 -0.303,0.123 -0.671,0.854 -0.968,1.079 -0.487,-0.951 -0.737,-0.52 -1.292,0 -1.183,-0.945 -3.251,0.375 -4.524,-0.54 -0.354,-0.253 -0.322,-1.399 -0.322,-1.399 -0.015,-0.071 0.045,-0.444 -0.108,-0.323 0.466,-0.388 0.4,-0.77 0.752,-1.291 0.117,-0.178 0.538,-0.267 0.646,-0.433 0.171,-0.271 0.046,-0.605 0.216,-0.859 0.059,-0.095 0.388,-0.112 0.433,-0.216 0.067,-0.181 -0.055,-0.458 0,-0.646 0.082,0.006 0.366,0.138 0.538,0.214 0.477,-0.68 0.979,-0.79 1.614,-1.292 0.394,-0.316 0.693,-0.858 1.077,-1.185 0.587,-0.506 1.28,-0.755 1.938,-1.185 0.345,-0.227 0.621,-0.759 0.969,-0.969 0.116,-0.069 0.298,0.043 0.432,0 0.445,-0.154 0.898,-0.769 1.292,-0.97 1.074,-0.562 2.053,-0.666 3.339,-1.076 0.688,-0.223 2.063,-0.924 2.909,-1.077 0.994,-0.184 2.112,-0.078 2.798,-0.215 0.278,-0.058 0.521,-0.396 0.967,-0.325 0.156,0.027 0.237,0.409 0.326,0.433 0.166,0.038 0.538,-0.229 0.752,-0.216 0.413,0.025 0.946,0.562 1.29,0.648 0.221,0.049 0.528,-0.127 0.864,0 v 0.105 c 0.285,0.153 0.539,0.284 0.861,0.432 0,0.03 -0.022,0.314 0,0.323 0.58,0.182 0.907,-0.25 1.831,0.107 -0.077,-0.047 -0.354,-0.398 -0.432,-0.431 -0.114,0.168 -0.107,-0.217 -0.107,-0.217 0.096,-0.088 0.508,-0.32 0.539,-0.431 0.093,-0.386 -0.184,-1.438 -0.323,-1.937 -0.183,-0.645 -1.188,-1.4 -1.188,-1.4 0,-0.07 0.044,-0.395 0,-0.433 -0.087,-0.082 -0.422,0.052 -0.534,0 -0.164,-0.069 0,-0.339 -0.108,-0.428 -0.217,-0.185 -1.552,-1.025 -1.725,-1.078 -0.839,-0.27 -1.407,0.06 -2.369,0 -0.359,-0.023 -0.854,-0.424 -1.291,-0.431 -0.188,-0.002 -0.605,0.306 -0.753,0.322 -1.012,0.108 -1.973,0.005 -3.123,0.324 -0.179,0.047 -0.433,0.392 -0.541,0.428 -0.506,0.157 -0.938,-0.067 -1.397,0.11 -0.228,0.084 -0.399,0.6 -0.11,0.648 -0.913,0.297 -1.299,0.665 -2.259,0.966 -0.042,-0.152 0.035,-0.383 -0.106,-0.43 h -0.218 c -0.127,0.319 -0.614,1.332 -0.968,1.4 -0.111,0.02 -1.312,-0.456 -1.509,-0.54 0.145,0.277 0.178,0.408 0.324,0.646 -0.89,0.29 -1.962,0.452 -2.584,0.108 -0.102,0.892 0.112,1.267 -0.107,2.153 -0.886,-0.164 -2.134,0.995 -2.37,-0.537 -0.106,0.56 -0.195,0.672 -0.86,0.86 -0.067,0.893 -0.08,2.239 -0.972,2.587 -0.1,0.036 -0.35,-0.072 -0.43,0 -0.536,0.458 0.125,0.575 -0.754,0.431 -0.036,0.102 -0.029,0.307 -0.105,0.322 0,0 0.281,0.213 0.215,0.216 -0.576,0.015 -0.381,-0.445 -0.648,-0.646 -0.127,0.053 -0.396,0 -0.538,0 l -0.107,0.536 c -0.321,0.14 -2.325,-0.076 -2.585,-0.105 -0.697,-0.086 -2.138,0.046 -2.904,0.323 -0.068,0.018 -0.157,0.306 -0.216,0.322 -0.294,0.076 -0.415,-0.14 -0.862,0 v 0.108 c -0.32,0.163 -1.294,0.254 -1.509,0.535 -0.078,0.101 -0.023,0.367 -0.108,0.435 -0.284,0.215 -0.659,0.138 -0.971,0.322 -0.008,0.005 -0.105,0.324 -0.105,0.324 -0.731,0.426 -1.979,0.574 -2.585,1.074 -0.148,0.123 -0.233,0.482 -0.324,0.648 -1.181,-0.305 -0.79,0.167 -1.507,0.43 -0.454,0.162 -0.962,0.02 -1.508,0.32 -0.051,0.031 -0.157,0.31 -0.214,0.324 -0.73,0.187 -1.044,0.032 -1.83,0.324 l 0.108,0.862 -0.325,-0.108 c 0,0 -0.097,-0.598 -0.108,-0.644 0,0 -0.317,0.102 -0.321,0.106 -0.083,0.785 0.144,0.821 -0.649,0.646 0.021,0.067 0.153,0.413 0.11,0.432 -0.534,0.157 -1.286,-0.235 -1.508,-0.216 -0.187,0.011 -0.204,0.277 -0.322,0.322 -0.301,0.098 -0.655,-0.074 -0.971,0 -0.118,0.023 -0.567,0.413 -0.754,0.431 -0.246,0.021 -0.407,-0.179 -0.754,-0.106 -0.843,0.163 -1.885,1.013 -2.798,1.183 -0.499,0.093 -1.032,-0.137 -1.725,0 -0.633,0.123 -1.607,0.747 -2.153,0.754 -0.324,0.004 -0.378,-0.265 -0.754,-0.214 -0.019,0 -0.265,0.303 -0.324,0.321 -0.352,0.094 -2.072,0.045 -2.368,0 -0.055,-0.008 -0.374,-0.319 -0.429,-0.321 -0.623,-0.066 -0.991,0.332 -1.618,0.321 -0.096,-0.004 -0.538,-0.305 -0.644,-0.321 -0.839,-0.146 -1.106,0.017 -2.046,-0.217 0,-0.031 0.019,-0.319 0,-0.323 -0.312,-0.098 -0.761,0.061 -1.077,0 -0.72,-0.141 -1.331,-0.882 -1.831,-1.291 -0.131,-0.108 -0.462,-0.169 -0.538,-0.322 -0.159,-0.311 0.046,-0.648 -0.11,-0.97 -0.11,-0.229 -0.695,-0.665 -0.86,-1.076 0.182,-0.134 0,-0.538 0,-0.538 0.084,0 0.11,-1.079 0.11,-1.079 0.444,-0.932 0.057,-1.479 0.86,-1.833 -0.129,-0.544 -0.161,-0.567 0,-1.184 -0.148,0.036 -0.173,0.154 -0.433,0.11 0.106,-0.351 0.848,-1.977 1.077,-2.152 0.148,-0.119 0.489,0.008 0.646,-0.108 l 0.108,-0.541 c 1.021,-0.345 0.934,-0.879 1.724,-1.508 0.202,-0.163 0.433,-0.047 0.647,-0.215 0.205,-0.169 0.192,-0.611 0.429,-0.754 0.356,-0.218 0.755,-0.125 1.077,-0.321 0.384,-0.242 0.337,-0.67 0.646,-0.971 0.341,-0.337 0.994,-0.371 1.506,-0.538 0,-0.233 -0.047,-0.527 0,-0.754 0.419,-0.125 0.964,-0.13 1.078,-0.217 0.036,-0.029 0,-0.368 0,-0.428 0.663,-0.369 1.025,-0.65 1.723,-0.97 -0.025,-0.075 -0.105,-0.325 -0.105,-0.325 0.325,-0.43 1.055,-0.345 0.536,-0.754 -0.131,-0.105 -0.108,-0.322 -0.108,-0.322 0.528,-0.159 0.843,-0.222 1.293,-0.432 -0.013,-0.021 -0.131,-0.208 -0.106,-0.214 0.445,-0.153 0.894,0.084 1.4,-0.325 0.291,-0.236 0.422,-0.763 0.752,-0.968 0.11,-0.069 0.358,-0.015 0.432,-0.106 0.153,-0.203 0.017,-0.506 0.216,-0.647 0.539,-0.392 1.178,-0.396 1.72,-0.754 0.365,-0.246 0.653,-0.604 1.077,-0.86 -0.025,-0.075 -0.106,-0.322 -0.106,-0.322 0.28,-0.271 0.617,-0.106 0.97,-0.324 0.123,-0.08 -0.108,-0.216 -0.108,-0.216 0.375,-0.263 0.438,-0.326 0.646,-0.755 0.271,0 0.281,0.179 0.536,0 0,-0.002 -0.324,-0.397 0.108,-0.538 1.314,-0.424 -0.25,1.142 -0.539,1.4 0.913,-0.43 1.079,-0.783 2.157,-0.862 0.407,-0.938 0.534,-1.343 1.185,-1.831 -0.037,-0.064 -0.157,-0.147 -0.109,-0.213 0.026,-0.047 0.403,-0.172 0.428,-0.217 0.375,-0.716 0.098,-0.756 0.86,-1.076 0,0 -0.385,-0.169 -0.318,-0.218 0.123,-0.094 0.395,0.076 0.536,0 0.033,-0.018 0.094,-0.485 0.109,-0.536 0.421,-0.065 0.578,0.055 0.86,-0.217 0.117,-0.114 0.017,-0.406 0.11,-0.535 0.085,-0.137 0.453,-0.178 0.536,-0.326 0.301,-0.552 0.058,-0.873 0.432,-1.185 0.261,-0.221 0.617,-0.098 0.862,-0.322 0.051,-0.051 -0.029,-0.252 0,-0.321 0.089,-0.238 1.322,-1.148 1.614,-1.509 0.323,0.057 0.386,0.08 0.753,0.108 0.048,-0.183 -0.079,-0.465 0,-0.646 l 0.108,-0.111 c 0.679,-0.236 0.565,-0.815 0.86,-0.968 0.317,-0.167 0.836,0.007 0.97,0 0.229,-0.618 0.407,-0.725 0.97,-0.968 -0.483,-0.375 0.517,-1.409 0.754,-1.831 0.246,0.178 0.234,0.168 0.539,0.322 l 0.216,-0.431 c 0.169,-0.711 -0.032,-0.622 0.644,-0.862 -0.106,-0.855 0.388,-1.178 1.403,-1.397 0.034,-0.227 -0.091,-0.549 0,-0.755 0.051,-0.116 0.434,-0.124 0.538,-0.216 0.25,-0.23 0.754,-1.506 0.754,-1.506 l -0.109,-0.217 c 0.241,-0.129 0.364,-0.171 0.423,-0.18 0.01,-0.062 0.059,-0.195 0.225,-0.467 0,0 0.216,-0.156 0.321,-0.227 v -0.095 c 0.148,-0.123 0.729,-0.281 0.755,-0.324 0.239,-0.477 -0.068,-0.75 -0.108,-0.971 0.049,-0.043 0.267,0.032 0.322,0 0.028,-0.015 -0.023,-0.277 0,-0.322 0.195,-0.406 0.871,-0.676 1.185,-0.752 -0.065,-0.199 0.057,-0.19 0.11,-0.324 -0.089,-0.074 -0.432,-0.433 -0.432,-0.433 0.36,0.096 1.302,-2.004 1.508,-2.69 -0.209,-0.114 -0.237,0.013 -0.324,-0.214 0.595,0.038 1.405,0.063 1.184,-0.862 l -0.105,-0.216 c 0.216,-0.221 0.921,-0.523 1.076,-0.755 0.513,-0.774 0.153,-2.563 0.108,-3.339 -0.042,-0.682 0.327,-2.071 0.214,-2.477 -0.049,-0.171 -0.511,-0.437 -0.538,-0.538 -0.152,-0.534 0.352,-0.835 -0.106,-1.076 -0.178,-0.093 -0.558,-0.194 -0.648,-0.214 -0.093,-0.822 -0.102,-0.992 -0.754,-1.078 0.177,-0.447 0.158,-0.538 0.322,-0.862 -0.801,-0.302 -0.5,-0.614 -0.86,-0.86 -0.189,-0.134 -0.181,0.123 -0.322,0.107 -0.167,-0.021 -0.479,-0.394 -0.648,-0.43 -0.767,-0.174 -1.771,-0.214 -2.581,-0.107 -0.979,0.12 -2.36,0.73 -3.449,1.184 -0.296,0.119 -0.894,0.693 -1.182,0.752 -0.346,0.066 -0.462,-0.218 -0.865,-0.107 -0.576,0.158 -1.625,2.303 -2.258,2.692 -0.242,0.145 -0.44,-0.036 -0.538,0 -0.411,0.145 -0.36,0.719 -0.648,0.971 -0.271,0.229 -0.666,0.114 -0.968,0.322 -0.189,0.125 -0.268,0.489 -0.431,0.646 -0.248,0.225 -0.597,0.204 -0.862,0.433 -0.362,0.308 -0.4,0.98 -0.756,1.292 -0.329,0.28 -0.742,0.28 -1.074,0.538 -0.634,0.483 -1.119,1.305 -1.723,1.829 -0.124,0.105 -0.461,0.196 -0.537,0.323 -0.064,0.103 -0.03,0.521 -0.219,0.755 -0.204,0.248 -0.979,0.574 -1.074,0.862 -0.055,0.14 0.076,0.42 0,0.538 -0.142,0.201 -0.339,-0.047 -0.539,0.106 -0.054,0.037 -0.065,0.466 -0.107,0.54 -0.256,0.406 -1.058,0.62 -1.401,0.968 -0.25,0.245 -0.098,0.553 -0.324,0.86 -0.171,0.23 -0.413,0.036 -0.646,0.219 -0.051,0.033 0.026,0.254 0,0.321 -0.125,0.32 -0.996,0.545 -1.185,0.862 -0.163,0.27 -0.006,0.398 -0.107,0.536 -0.125,0.167 -0.174,0.077 -0.43,0.108 -0.244,0.729 -1.066,1.29 -0.321,1.725 -0.688,0.091 -0.923,0.31 -1.618,0.322 -0.21,0.434 -0.153,0.821 -0.43,1.186 -0.22,0.28 -0.459,0.094 -0.756,0.32 -0.297,0.233 -0.221,0.627 -0.428,0.971 -0.392,0.629 -1.239,1.192 -1.616,1.83 -0.071,0.116 -0.304,1.273 -0.325,1.295 -0.059,0.053 -0.445,0 -0.539,0 -0.254,0.593 -0.194,0.765 -0.86,0.859 -0.04,0.195 0.053,0.257 0.106,0.429 -0.454,0.343 -0.61,0.629 -0.966,1.078 -0.165,0.199 -0.771,0.433 -0.864,0.648 -0.161,0.366 0.089,0.74 0.219,1.29 -0.278,0.102 -0.473,0.121 -0.757,0.217 0,0.032 0.021,0.313 0,0.324 -0.216,0.085 -0.638,-0.3 -0.86,0.321 -0.187,0.507 0.046,0.9 0.108,1.293 -1,0.292 -1.294,0.131 -1.506,1.293 -0.1,0.004 -0.517,0.107 -0.648,0.107 -0.009,0.06 0,0.86 0,0.86 0,0 -0.509,0.493 -0.539,0.538 0,0 -0.381,0.593 0.108,0.433 -0.023,0.093 -0.172,0.611 -0.108,0.646 -1.246,-0.619 -2.148,2.144 -2.799,3.23 -0.049,0.068 -0.394,0.104 -0.432,0.217 -0.051,0.129 0.065,0.426 0,0.538 -0.117,0.176 -0.383,0.074 -0.536,0.216 -0.145,0.121 -0.585,0.945 -0.649,1.076 -0.327,0.632 -0.186,1.114 0.216,1.507 -0.671,-0.188 -0.907,-0.141 -1.292,0.538 -0.578,1.009 -0.856,2.009 -1.4,3.125 -0.206,0.413 -0.714,0.81 -0.862,1.29 -0.142,0.451 0.049,0.824 -0.106,1.293 -0.087,0.243 -0.932,0.85 -0.97,0.859 0.453,-0.182 0.625,-0.203 0.97,-0.428 0.079,-0.058 0.25,-0.292 0.322,-0.324 0.561,-0.263 0.072,0.217 0.322,0.324 -0.428,0.172 -1.225,0.42 -0.432,0.645 -0.555,0.386 -0.988,0.739 -1.615,1.078 0,0.065 0.043,0.39 0,0.431 -0.063,0.053 -0.447,0 -0.536,0 -0.125,0.279 -0.074,0.334 -0.219,0.537 -0.092,-0.033 -0.294,-0.124 -0.319,-0.107 0.133,0.114 -0.163,0.398 0.213,0.324 -0.029,0.036 -0.224,0.315 -0.213,0.324 -0.265,-0.045 -0.303,-0.098 -0.541,-0.217 -0.106,0.242 -0.093,0.09 -0.322,0.217 0,0.089 0.057,0.587 0,0.646 -0.093,0.085 -0.216,-0.107 -0.216,-0.107 -0.344,0 -1.632,1.008 -1.937,1.185 -0.157,0.082 -0.405,-0.009 -0.541,0.105 -0.068,0.055 -0.019,0.375 -0.107,0.433 -0.343,0.218 -0.678,0.093 -0.968,0.322 -0.163,0.127 -0.562,0.769 -0.541,0.751 v 0.219 c 0.148,0.036 0.648,0.216 0.648,0.216 -0.521,0.237 -2.826,1.009 -3.014,1.29 -0.023,0.026 -0.121,0.655 -0.216,0.863 -1.754,0.042 -0.852,0.538 -1.831,0.966 -0.557,0.241 -0.684,0.136 -1.078,0.433 0.194,0.343 0.135,0.426 0.322,0.754 -1.787,0.265 -1.615,1.248 -2.796,1.4 0.135,0.421 0.076,0.447 0.213,0.86 -0.25,0.106 -0.438,-0.011 -0.646,0.108 -0.089,0.044 -0.254,0.517 -0.325,0.54 -0.114,0.033 -1.319,-0.242 -0.751,0.214 0.108,0.087 0.108,0 0.108,0 0.483,0.167 0.949,0.161 0.322,0.538 -0.542,0.324 -1.265,0.301 -1.829,0.54 1.284,0.746 -0.568,0.536 -0.648,0.536 h -0.11 c -0.334,0.127 -0.551,0.875 -0.861,1.081 -0.021,0.013 -1.523,0.729 -1.614,0.751 -0.256,0.061 -0.623,-0.098 -0.86,0 -0.198,0.075 0.153,0.449 -0.216,0.646 0.161,-0.021 0.377,-0.157 0.539,-0.216 -0.474,0.93 -0.136,1.127 -1.509,1.614 0.284,0 0,-1.074 0,-1.074 -0.125,-0.096 -0.049,-0.159 -0.108,-0.324 -0.209,0.081 -0.72,0.417 -0.863,0.431 -0.682,0.046 -0.158,-0.693 -1.182,0.216 -0.708,0.623 -1.395,1.629 -2.153,2.154 0.051,0.181 0.151,0.245 0.106,0.43 -0.568,0.099 -0.515,0.017 -0.325,0.106 0.21,0.1 -0.006,0.267 0.219,0.324 0,0 -0.182,0.358 -0.212,0.417 0.063,0.095 0.212,0.339 0.212,0.339 0.03,0.183 -0.135,0.293 -0.219,0.431 0.92,0.078 0.757,0.386 0.431,1.077 -0.312,-0.131 0.009,0.451 0.11,0.213 0.648,0.295 0.529,0.513 0.216,1.187 0.343,0.302 0.379,0.181 0.644,0.431 0,0 -0.077,0.182 -0.214,0.105 -0.011,0.021 -0.108,0.32 -0.108,0.324 0.24,0.087 0.534,0.184 0.646,0.216 0,0 -0.231,0.233 -0.107,0.322 0.281,0.217 0.591,0.1 0.967,0.217 0.129,-0.282 0.155,-0.596 0.218,-0.755 1.068,-0.124 1.195,0.006 1.289,-0.86 0.157,0.007 0.313,0.103 0.324,0.106 -0.227,-0.088 -0.218,0.422 0.324,0.324 0.292,-0.056 1.635,-1.052 1.94,-1.293 -0.008,-0.013 -0.148,-0.199 -0.11,-0.217 0.398,-0.184 0.504,0.014 0.754,-0.215 0.17,-0.155 -0.048,-0.282 0,-0.322 -0.302,0.063 -0.325,0.11 -0.644,0.108 0.023,-0.089 0.106,-0.325 0.106,-0.325 0.381,0.059 0.559,0.179 0.97,0.108 0.437,-0.076 0.479,-0.546 0.75,-0.752 0.69,-0.541 1.601,-0.653 2.265,-1.187 0.062,-0.054 0.042,-0.384 0.104,-0.431 0.271,-0.209 0.602,-0.12 0.864,-0.323 0.36,-0.284 0.574,-0.82 0.971,-1.076 0.309,-0.21 0.735,-0.098 1.076,-0.323 0.245,-0.169 0.377,-0.79 0.644,-0.97 0.402,-0.271 0.813,-0.246 1.186,-0.538 0.778,-0.623 0.818,-1.127 1.725,-1.613 0,0 -0.023,-0.532 0,-0.646 0.313,0.049 0.148,0.192 0.538,0.213 0.063,0 -0.219,-0.426 -0.219,-0.432 0.617,-0.229 0.757,-0.468 1.187,-0.752 0.5,-0.337 1.135,-0.31 1.612,-0.646 l 0.54,-0.43 c 0.036,-0.08 -0.063,-0.384 0,-0.431 0.192,-0.165 0.421,-0.072 0.646,-0.218 0.585,-0.391 0.458,-0.864 1.398,-1.074 -0.032,-0.013 0,-0.384 0,-0.431 -0.328,-0.015 -0.629,0 -0.968,0 0.023,-0.078 0.108,-0.326 0.108,-0.326 0.665,-0.091 0.834,0.005 1.292,0.11 0.115,-0.312 0.377,-0.723 0.864,-0.861 0.123,-0.043 0.437,0.067 0.539,0 0.055,-0.043 -0.176,-0.363 -0.218,-0.433 0.659,-0.268 0.993,-0.465 1.725,-0.753 -0.019,0.013 0,0.31 0,0.32 0.133,-0.129 0.108,0.109 0.108,0.109 -0.091,0.064 -0.377,0.333 -0.433,0.433 l -0.108,0.431 c 0.176,-0.045 0.263,-0.136 0.433,-0.214 -0.045,0.357 -0.375,2.097 -0.108,2.906 l 0.43,0.105 c 0.01,0.249 0.108,0.78 0.108,0.863 -0.009,0.207 -0.258,0.411 -0.216,0.538 0.06,0.18 0.572,0.284 0.648,0.538 0.129,0.462 -0.166,1.057 0,1.508 0.146,0.407 0.919,0.33 1.288,0.538 0.426,0.235 0.627,0.984 1.078,1.185 0.282,0.126 0.291,-0.186 0.541,-0.107 0,0 0.104,0.319 0.108,0.323 1.994,0 3.981,0.81 6.138,0.538 0.577,-0.076 1.133,-0.343 1.937,-0.432 0,-0.007 0.11,-0.322 0.11,-0.322 0.913,-0.296 1.214,-0.088 2.259,-0.324 0.309,-0.069 0.826,-0.578 1.078,-0.646 0.167,-0.046 0.494,0.08 0.646,0 0.108,-0.061 0.376,-0.693 0.971,-0.753 1.215,-0.132 2.233,0.286 3.336,0.108 0.202,-0.034 0.964,-0.464 1.187,-0.432 0.049,0.009 0.449,0.36 0.54,0.432 0.109,-0.384 0.204,-0.629 0.321,-0.971 0.527,0.067 1.006,0.255 1.722,0 0.044,-0.017 0.169,-0.315 0.216,-0.321 0.275,-0.063 0.746,0.212 1.292,0 0.242,-0.098 0.475,-0.554 0.754,-0.646 0.271,-0.098 0.966,0.093 1.508,-0.107 0.115,-0.045 0.28,-0.486 0.428,-0.539 0.335,-0.127 1.718,0.24 2.154,0.106 0.132,-0.04 0.384,-0.699 0.541,-0.752 0.393,-0.143 1.412,-0.016 1.829,-0.108 0.195,-0.047 0.8,-0.64 0.97,-0.646 0.108,-0.006 0.606,0.225 0.862,0.324 0.078,-0.125 0.22,-0.608 0.321,-0.648 0.31,-0.127 0.753,0.072 1.077,0 0.182,-0.042 0.464,-0.379 0.645,-0.43 0.296,-0.087 0.423,0.152 0.648,0.108 0.004,-0.002 0,-0.297 0,-0.322 0.437,-0.127 1.04,-0.103 1.616,-0.217 0.006,-0.002 0.28,-0.309 0.32,-0.323 0.555,-0.201 0.733,0.073 1.297,-0.106 0.288,-0.095 0.673,-0.801 0.968,-0.861 0.566,-0.126 0.964,0.173 1.723,0 0.924,1.69 0.148,3.048 1.292,4.415 0.331,0.396 0.88,0.332 1.185,0.537 0.121,0.081 0.065,0.257 0.108,0.433 0.744,0.186 1.25,0.638 1.83,0.755 l 2.475,0.643 c 0.411,0.094 0.37,-0.504 0.754,-0.538 0.242,-0.023 -0.136,0.26 0.11,0.322 0.32,0.085 0.606,-0.055 0.968,-0.105 -0.013,0.034 -0.223,0.259 -0.108,0.321 h 0.216 l 0.86,-0.107 0.217,-0.535 c 0.733,-0.033 2.186,0.152 3.229,0 0.199,-0.033 0.992,-0.407 1.187,-0.433 0.436,-0.068 1.021,0.109 1.292,0.107 0.327,-0.01 1.134,-0.366 1.506,-0.43 0.308,-0.059 0.286,0.18 0.541,0.105 0.015,-0.006 0,-0.291 0,-0.321 1.539,-0.203 0.922,-0.627 2.046,-1.293 0.279,0.371 0.556,0.773 1.183,0.539 0.19,-0.074 0.192,-0.308 0.323,-0.433 -0.285,-0.042 -0.385,-0.013 -0.537,0 0.654,-0.282 1.273,-0.916 2.26,-0.969 -0.423,-0.277 -0.329,-0.413 -0.215,-0.968 0.098,0 0.354,0.051 0.431,0 -0.012,0.32 0.043,0.648 0,1.185 -0.028,0 -0.32,-0.007 -0.32,0 0.512,0.464 -0.422,0.951 0.431,1.398 -0.15,0.25 -0.279,0.428 -0.431,0.756 0.118,0.055 0.399,0 0.536,0 0.425,0.779 -0.028,0.258 0.753,0.645 -0.006,0.009 -0.134,0.205 -0.105,0.215 0.195,0.061 -0.354,-0.02 -0.647,-0.104 0.052,0.088 0.212,0.427 0.212,0.427 0.396,0.033 1.069,-0.048 1.188,0 l -0.188,0.562 c 0,0 0.895,1.027 0.832,1.056 -0.193,0.076 -0.408,0.067 -0.538,0.107 0.621,0.128 0.64,0.302 0.538,0.86 0.226,-0.125 0.456,-0.147 0.647,-0.216 0,-0.009 -0.017,-0.312 0,-0.322 -0.773,-0.736 0.233,-0.15 0.432,0.646 0.111,0.027 0.446,0.027 0.538,0.108 0.034,0.031 -0.021,0.276 0,0.322 0.076,0.204 0.869,0.666 1.076,0.754 0.34,0.142 0.765,0.01 1.076,0.216 0.039,0.022 0,0.368 0,0.432 0.334,0.1 0.473,0.094 0.863,0.215 -0.012,0.017 -0.134,0.212 -0.108,0.217 0.397,0.052 0.254,-0.365 0.97,-0.217 0.076,0.015 -0.327,0.217 -0.327,0.217 0.955,0.645 1.018,0.284 2.047,0.107 -0.728,0.198 -0.122,0.479 0.327,0.644 0.253,0.097 0.775,0.14 0.968,0.324 0.024,0.022 0.109,0.43 0.109,0.43 0.788,0.314 1.192,-0.366 1.83,-0.107 0.013,0.004 -0.192,0.286 -0.216,0.324 0.12,0.104 0.211,0.213 0.32,0.322 0.158,-0.122 0.306,-0.335 0.434,-0.431 l 1.86,0.688 2.769,0.175 c 0.04,-0.114 0.11,-0.366 0.219,-0.432 0.161,0.156 0.1,0.305 0.217,0.537 1.046,0.062 1.177,0.153 2.149,0.219 0.652,0.041 1.532,-0.186 2.154,0 0,0 0.212,0.426 0.216,0.431 0.084,0.024 0.184,-0.208 0.861,0 0.026,-0.125 0,-0.418 0.11,-0.431 0.012,-0.005 0.736,0.197 1.075,0.215 -0.144,-0.043 0.382,-0.122 0.431,-0.108 v 0.214 c 0.751,-0.06 1.123,-0.175 1.614,-0.32 0.154,0.369 0.223,0.514 0.324,0.752 0.41,-0.093 0.949,-0.13 1.398,-0.321 0,0 0.227,-0.409 0.54,-0.431 0.256,-0.025 0.85,0.402 1.078,0.431 0.497,0.052 1.641,-0.296 2.364,-0.216 0.09,0.006 0.488,0.249 0.649,0.216 0.152,-0.036 0.2,-0.409 0.431,-0.431 0.113,-0.015 1.064,0.447 1.187,0.431 0.068,-0.015 0.38,-0.53 0.429,-0.541 0.549,-0.137 0.484,0.357 0.969,0.217 0.13,-0.04 -0.108,-0.431 -0.108,-0.431 0.114,-0.043 0.292,-0.011 0.322,-0.108 0.329,0.114 0.622,0.486 1.186,0.539 0.46,0.041 0.92,-0.286 1.186,-0.325 0.243,-0.035 0.911,0.219 0.97,0.219 0.312,-0.009 0.935,-0.314 1.183,-0.324 0.317,-0.017 0.831,0.229 1.295,0.214 0.47,-0.017 1.436,-0.15 1.936,-0.214 l 0.111,-0.324 c 0.059,-0.017 0.414,0.163 0.53,0.214 0.046,0 0.182,0 0.228,0 0.974,-0.148 1.458,-0.352 2.471,-0.214 l 0.108,-0.43 c 0.268,-0.034 0.479,0.489 0.859,0.43 0.108,-0.02 -0.104,-0.43 -0.104,-0.43 0.957,0.252 1.174,0.11 1.721,-0.433 0.127,0.072 0.41,-0.074 0.537,0 0.023,0.013 0,0.379 0,0.433 0.005,0 0.322,0.108 0.322,0.108 0.106,-0.059 0.152,-0.46 0.434,-0.541 l 1.399,0.108 c 0.086,0.004 0.282,0.246 0.54,0.216 l 0.213,-0.324 c 0.207,-0.056 1.001,0 1.508,0 0,-0.06 -0.034,-0.525 0,-0.538 0.152,-0.069 0.428,0.11 0.428,0.11 0,0 0.123,0.354 0.648,0.322 0.75,-0.053 1.146,-0.445 1.938,-0.322 -0.12,-0.174 -0.256,-0.375 -0.322,-0.541 0.058,-0.034 0.183,0.041 0.108,-0.106 0.165,0.061 0.466,0 0.644,0 0,0.07 -0.037,0.516 0,0.537 0.1,-0.076 0.327,0.062 0.431,0 0.027,-0.015 0,-0.379 0,-0.431 0.43,0.141 0.924,0.342 1.187,0.322 0.625,-0.049 0.642,-0.576 0.969,-0.643 0.69,-0.151 -0.06,0.343 0.97,-0.217 0.882,0.582 0.834,0.184 1.614,0.108 0.496,-0.052 0.771,0.265 1.401,0.216 1.033,-0.087 1.318,-0.449 2.476,-0.539 v -0.324 c 0.443,-0.091 0.354,0.261 0.647,0.215 l 0.107,-0.322 c 0.822,-0.064 0.937,-0.004 1.4,0.214 0.031,-0.07 0.15,-0.416 0.214,-0.43 1.047,-0.257 1.845,0.21 2.372,0.107 v -0.214 c 0.232,0.007 0.59,-0.01 0.86,0 l 0.217,-0.433 c 0.449,-0.093 0.479,0.31 0.538,0.325 0.199,0.044 1.22,-0.051 1.613,-0.111 0.979,-0.146 2.905,-0.347 3.771,-0.751 0.107,-0.054 0.252,-0.52 0.319,-0.539 0.5,-0.154 1.008,0.265 1.297,0.431 -0.102,-0.503 -0.229,-0.685 0.642,-0.862 0.005,0.043 0.126,0.737 0.108,0.647 0.221,0.008 0.386,0.248 0.862,0.106 0.056,-0.017 -0.214,-0.216 -0.214,-0.216 0.275,-0.053 0.357,-0.053 0.539,-0.106 -0.067,-0.126 -0.218,-0.432 -0.218,-0.432 0.783,-0.261 0.966,0.401 1.077,0.432 0.216,0.056 0.529,0 0.754,0 -0.07,-0.046 0.17,-0.086 0,-0.216 -0.888,-0.682 1.096,-0.19 1.723,-0.216 -0.223,-0.207 -0.144,-0.16 -0.216,-0.43 0.172,0 0.388,0.05 0.54,0 0,0.09 -0.059,0.589 0,0.646 0.075,-0.034 0.248,0 0.325,0 l -0.109,-0.752 c 0,0 0.421,0.329 0.539,0.536 -0.188,0.047 -0.063,0.324 0.216,0.216 0.451,-0.177 0.267,-0.317 0.86,0 0.303,-0.445 0.464,-0.665 0.645,-0.97 0.11,0.205 1.003,0.874 1.939,0.54 0,0 0.804,-0.951 0.86,-0.97 0.911,-0.317 1.801,0.03 2.588,-0.323 0.154,0.239 0.191,0.429 0.321,0.646 l -0.069,-4.915 z M 54.376,89.684 c 0.099,-0.309 0.154,-0.563 0.213,-1.076 l 0.322,-0.109 c 0.004,0 0.364,0.184 0.538,0.109 0.047,-0.021 -0.025,-0.273 0,-0.324 0.021,-0.046 0.403,-0.167 0.433,-0.214 0.068,-0.118 0.047,-0.534 0,-0.43 l 1.036,-1.829 c 0.012,-0.04 0.519,-0.711 0.534,-0.747 l 0.263,-0.55 c 0.538,-0.716 0.027,-0.923 0.32,-1.83 0.081,-0.248 0.644,-0.493 0.862,-0.646 l 0.216,0.217 c -0.114,-0.752 -0.134,-1.036 0.43,-1.401 0.009,0.037 0.096,0.533 0.108,0.541 0.218,0.108 0.332,-0.159 0.429,-0.108 0.031,-0.446 0.331,-0.945 0.467,-1.148 -0.021,0.027 -0.034,0.045 -0.068,0.09 0.843,-1.094 0.695,-1.82 0.786,-2.496 0.553,0 0.43,0.239 0.646,-0.541 1.114,0.333 1.055,-0.105 0.648,-0.968 0.428,-0.205 0.106,-0.538 0.106,-0.538 0.33,-0.057 0.602,0.301 0.97,0.219 0.161,-0.043 0,-0.324 0,-0.324 -0.059,0.241 -0.216,-0.217 -0.216,-0.217 0,0 0.428,-0.646 0.432,-0.646 0.081,0.049 0.169,0.342 0.214,0.429 0.019,-0.013 0.43,-0.319 0.43,-0.319 0.006,-0.028 0.324,-0.431 0.324,-0.431 0.166,-0.723 0.21,-1.464 0.324,-1.941 0,0 0.157,0.24 0.216,0.217 0.081,0.22 0.208,0.462 0.322,0.754 0.074,-0.025 0.318,-0.112 0.322,-0.108 0.149,-0.631 0.208,-1.285 0.322,-2.151 0.229,0.004 0.136,-0.282 0.432,-0.217 0,0 0.367,0.284 0.433,0.322 0.045,-0.146 -0.012,-0.271 0.106,-0.538 0.1,0 0.475,0.051 0.538,0 0.06,-0.053 0,-0.443 0,-0.536 0.327,-0.125 0.176,0.089 0.324,-0.219 l -0.756,-0.43 c 0.379,-0.208 0.911,-0.281 1.294,-0.538 0.407,-0.279 0.473,-1.121 0.86,-1.398 0.252,-0.19 0.562,-0.066 0.862,-0.216 0.399,-0.21 0.603,-0.89 0.863,-1.079 0.392,-0.292 0.892,-0.177 1.184,-0.538 0.282,-0.355 -0.025,-0.646 0.325,-0.968 0.275,-0.267 0.599,-0.123 0.968,-0.324 0.565,-0.318 0.84,-1.335 1.614,-1.831 0.568,-0.366 0.157,-0.069 0.324,-0.752 0,0 0.256,-0.216 0.106,-0.216 0.439,-0.243 0.769,-0.074 1.079,-0.216 0.212,-0.101 0.246,-0.594 0.43,-0.754 0.083,-0.076 0.329,0.049 0.433,0 0.072,-0.037 0.032,-0.374 0.107,-0.431 0.141,-0.125 0.399,0.011 0.539,-0.109 0.165,-0.146 0.114,-0.541 0.321,-0.646 0.276,-0.144 0.627,0.013 0.861,-0.107 0.203,-0.106 0.845,-0.85 1.186,-1.076 -0.025,-0.047 -0.156,-0.183 -0.108,-0.216 0.112,-0.086 0.414,0.057 0.539,0 0.137,-0.066 0.28,-0.646 0.43,-0.753 0.356,-0.263 0.805,-0.176 1.187,-0.432 0.161,-0.112 0.078,-0.469 0.322,-0.538 0.148,-0.047 0.407,0.069 0.539,0 0.243,-0.138 0.239,-0.594 0.43,-0.755 0.727,-0.614 1.279,-0.006 2.154,-1.076 0.624,0.179 0.403,0.206 1.077,0 0.941,1.312 -0.055,2.727 -0.538,3.985 -0.218,0.562 -0.254,1.015 -0.539,1.504 -0.213,0.367 -0.686,0.698 -0.862,1.081 -0.275,0.596 -0.218,0.985 -0.538,1.506 -0.159,0.252 -0.594,0.494 -0.754,0.755 -0.163,0.259 -0.132,0.623 -0.322,0.859 -0.188,0.228 -0.718,0.276 -0.862,0.541 -0.11,0.19 0.025,0.542 -0.106,0.754 -0.165,0.259 -0.403,0.02 -0.648,0.214 -0.16,0.125 0.004,0.337 -0.108,0.538 -0.059,0.103 -0.362,0.123 -0.43,0.217 -0.229,0.309 -0.195,0.663 -0.43,0.969 -0.193,0.238 -0.882,0.48 -0.968,0.754 -0.072,0.203 0.042,0.442 0,0.646 -0.145,-0.006 -0.556,-0.114 -0.756,0 -0.126,0.07 -0.121,0.511 -0.214,0.646 -0.081,0.108 -0.937,0.687 -0.966,0.754 -0.254,0.462 -0.038,0.818 -0.433,1.185 -0.374,0.344 -0.487,0.007 -0.864,0.216 -0.407,0.223 -0.568,1.208 -0.968,1.507 -0.328,0.243 -0.854,0.161 -1.184,0.43 -0.327,0.259 -0.301,1.049 -0.647,1.295 -0.18,0.119 -0.489,0.002 -0.646,0.108 -0.423,0.271 -0.525,1.144 -0.971,1.398 -0.415,0.234 -0.867,-0.018 -1.29,0.216 -0.129,0.067 -0.104,0.48 -0.216,0.535 -0.091,0.047 -0.479,-0.078 -0.538,0 -0.086,0.111 0.044,0.409 0,0.541 -0.006,0.013 -0.731,0.739 -0.752,0.754 -0.468,0.246 -0.746,0.032 -1.295,0.322 -0.163,0.089 -0.413,0.473 -0.54,0.541 -0.496,0.258 -0.885,0.099 -1.183,0.537 -0.277,0.398 -0.245,0.82 -0.538,1.185 -0.165,0.195 -0.621,0.32 -0.754,0.539 -0.064,0.097 -0.03,0.37 -0.106,0.429 -0.852,0.624 -0.813,-0.413 -1.187,0.971 -0.084,-0.008 -0.5,-0.073 -0.544,-0.1 -0.128,0.181 -0.478,0.578 -0.643,0.744 -0.64,0.64 -1.25,0.989 -1.722,1.832 0.438,-0.22 0.699,-0.277 1.079,-0.54 l -0.325,0.433 -0.108,0.107 c -0.046,0.023 -0.138,0.476 -0.211,0.538 -0.395,0.306 -1.036,0.219 -1.403,0.538 -0.031,0.023 0,0.271 0,0.325 -0.593,0.301 -1.06,0.944 -1.614,1.184 -0.645,0.268 0.288,-0.595 0.644,-0.754 l 0.108,-0.43 c -0.35,0.22 -1.576,0.51 -1.72,0.754 -0.248,0.402 0.067,0.523 -0.11,0.858 -0.062,0.118 -0.271,0.18 -0.375,0.203 -0.004,0.011 -0.021,0.015 -0.055,0.013 0,0 0.021,-0.005 0.055,-0.013 0.038,-0.049 -0.322,-0.221 -0.593,-0.094 -0.121,0.053 -0.134,0.373 -0.216,0.431 -0.589,0.392 -0.961,0.504 -1.831,0.86 0,0.075 0.043,0.504 0,0.54 -0.07,-0.053 -0.24,-0.248 -0.322,-0.215 0.05,-0.178 0.037,-0.342 0.107,-0.543"
       id="path23"
       inkscape:connector-curvature="0"
       style="fill:#feea00" /><rect
       x="6"
       y="14.552998"
       width="200"
       height="260.89499"
       id="rect25"
       style="fill:none" /><text
       xml:space="preserve"
       style="font-size:35.19992447px;font-style:normal;font-weight:normal;line-height:125%;letter-spacing:0px;word-spacing:0px;fill:#ffffff;fill-opacity:1;stroke:none;font-family:Sans"
       x="150.1599"
       y="246.22189"
       id="text3016"
       sodipodi:linespacing="125%"
       transform="scale(1.0324871,0.96853511)"><tspan
         sodipodi:role="line"
         id="tspan3018"
         x="150.1599"
         y="246.22189"
         style="font-style:normal;font-variant:normal;font-weight:normal;font-stretch:normal;fill:#ffffff;font-family:Arial;-inkscape-font-specification:Arial">ina</tspan></text>
</g></svg>